<svg width="152" height="29" viewBox="0 0 152 29" fill="none" xmlns="http://www.w3.org/2000/svg">
<g id="Group 548">
<g id="My courses">
<path d="M54.6966 6.65869V20.5587H52.4166V11.0387L48.1766 20.5587H46.5966L42.3366 11.0387V20.5587H40.0566V6.65869H42.5166L47.3966 17.5587L52.2566 6.65869H54.6966Z" fill="white"/>
<path d="M67.6134 9.53869L60.8534 25.7387H58.4934L60.7334 20.3787L56.3934 9.53869H58.9334L62.0334 17.9387L65.2534 9.53869H67.6134Z" fill="white"/>
<path d="M73.7693 15.0387C73.7693 13.9054 73.996 12.912 74.4493 12.0587C74.916 11.192 75.556 10.5254 76.3693 10.0587C77.1826 9.59203 78.116 9.35869 79.1693 9.35869C80.5026 9.35869 81.6026 9.67869 82.4693 10.3187C83.3493 10.9454 83.9426 11.8454 84.2493 13.0187H81.7893C81.5893 12.472 81.2693 12.0454 80.8293 11.7387C80.3893 11.432 79.836 11.2787 79.1693 11.2787C78.236 11.2787 77.4893 11.612 76.9293 12.2787C76.3826 12.932 76.1093 13.852 76.1093 15.0387C76.1093 16.2254 76.3826 17.152 76.9293 17.8187C77.4893 18.4854 78.236 18.8187 79.1693 18.8187C80.4893 18.8187 81.3626 18.2387 81.7893 17.0787H84.2493C83.9293 18.1987 83.3293 19.092 82.4493 19.7587C81.5693 20.412 80.476 20.7387 79.1693 20.7387C78.116 20.7387 77.1826 20.5054 76.3693 20.0387C75.556 19.5587 74.916 18.892 74.4493 18.0387C73.996 17.172 73.7693 16.172 73.7693 15.0387Z" fill="white"/>
<path d="M91.3015 20.7387C90.2615 20.7387 89.3215 20.5054 88.4815 20.0387C87.6415 19.5587 86.9815 18.892 86.5015 18.0387C86.0215 17.172 85.7815 16.172 85.7815 15.0387C85.7815 13.9187 86.0282 12.9254 86.5215 12.0587C87.0148 11.192 87.6882 10.5254 88.5415 10.0587C89.3948 9.59203 90.3482 9.35869 91.4015 9.35869C92.4548 9.35869 93.4082 9.59203 94.2615 10.0587C95.1148 10.5254 95.7882 11.192 96.2815 12.0587C96.7748 12.9254 97.0215 13.9187 97.0215 15.0387C97.0215 16.1587 96.7682 17.152 96.2615 18.0187C95.7548 18.8854 95.0615 19.5587 94.1815 20.0387C93.3148 20.5054 92.3548 20.7387 91.3015 20.7387ZM91.3015 18.7587C91.8881 18.7587 92.4348 18.6187 92.9415 18.3387C93.4615 18.0587 93.8815 17.6387 94.2015 17.0787C94.5215 16.5187 94.6815 15.8387 94.6815 15.0387C94.6815 14.2387 94.5282 13.5654 94.2215 13.0187C93.9148 12.4587 93.5082 12.0387 93.0015 11.7587C92.4948 11.4787 91.9482 11.3387 91.3615 11.3387C90.7748 11.3387 90.2282 11.4787 89.7215 11.7587C89.2282 12.0387 88.8348 12.4587 88.5415 13.0187C88.2481 13.5654 88.1015 14.2387 88.1015 15.0387C88.1015 16.2254 88.4015 17.1454 89.0015 17.7987C89.6148 18.4387 90.3815 18.7587 91.3015 18.7587Z" fill="white"/>
<path d="M109.255 9.53869V20.5587H106.975V19.2587C106.615 19.712 106.142 20.072 105.555 20.3387C104.982 20.592 104.369 20.7187 103.715 20.7187C102.849 20.7187 102.069 20.5387 101.375 20.1787C100.695 19.8187 100.155 19.2854 99.7554 18.5787C99.3687 17.872 99.1754 17.0187 99.1754 16.0187V9.53869H101.435V15.6787C101.435 16.6654 101.682 17.4254 102.175 17.9587C102.669 18.4787 103.342 18.7387 104.195 18.7387C105.049 18.7387 105.722 18.4787 106.215 17.9587C106.722 17.4254 106.975 16.6654 106.975 15.6787V9.53869H109.255Z" fill="white"/>
<path d="M114.544 11.1387C114.877 10.5787 115.317 10.1454 115.864 9.83869C116.424 9.51869 117.084 9.35869 117.844 9.35869V11.7187H117.264C116.37 11.7187 115.69 11.9454 115.224 12.3987C114.77 12.852 114.544 13.6387 114.544 14.7587V20.5587H112.264V9.53869H114.544V11.1387Z" fill="white"/>
<path d="M123.939 20.7387C123.073 20.7387 122.293 20.5854 121.599 20.2787C120.919 19.9587 120.379 19.532 119.979 18.9987C119.579 18.452 119.366 17.8454 119.339 17.1787H121.699C121.739 17.6454 121.959 18.0387 122.359 18.3587C122.773 18.6654 123.286 18.8187 123.899 18.8187C124.539 18.8187 125.033 18.6987 125.379 18.4587C125.739 18.2054 125.919 17.8854 125.919 17.4987C125.919 17.0854 125.719 16.7787 125.319 16.5787C124.933 16.3787 124.313 16.1587 123.459 15.9187C122.633 15.692 121.959 15.472 121.439 15.2587C120.919 15.0454 120.466 14.7187 120.079 14.2787C119.706 13.8387 119.519 13.2587 119.519 12.5387C119.519 11.952 119.693 11.4187 120.039 10.9387C120.386 10.4454 120.879 10.0587 121.519 9.77869C122.173 9.49869 122.919 9.35869 123.759 9.35869C125.013 9.35869 126.019 9.67869 126.779 10.3187C127.553 10.9454 127.966 11.8054 128.019 12.8987H125.739C125.699 12.4054 125.499 12.012 125.139 11.7187C124.779 11.4254 124.293 11.2787 123.679 11.2787C123.079 11.2787 122.619 11.392 122.299 11.6187C121.979 11.8454 121.819 12.1454 121.819 12.5187C121.819 12.812 121.926 13.0587 122.139 13.2587C122.353 13.4587 122.613 13.6187 122.919 13.7387C123.226 13.8454 123.679 13.9854 124.279 14.1587C125.079 14.372 125.733 14.592 126.239 14.8187C126.759 15.032 127.206 15.352 127.579 15.7787C127.953 16.2054 128.146 16.772 128.159 17.4787C128.159 18.1054 127.986 18.6654 127.639 19.1587C127.293 19.652 126.799 20.0387 126.159 20.3187C125.533 20.5987 124.793 20.7387 123.939 20.7387Z" fill="white"/>
<path d="M140.723 14.7787C140.723 15.192 140.696 15.5654 140.643 15.8987H132.223C132.29 16.7787 132.616 17.4854 133.203 18.0187C133.79 18.552 134.51 18.8187 135.363 18.8187C136.59 18.8187 137.456 18.3054 137.963 17.2787H140.423C140.09 18.292 139.483 19.1254 138.603 19.7787C137.736 20.4187 136.656 20.7387 135.363 20.7387C134.31 20.7387 133.363 20.5054 132.523 20.0387C131.696 19.5587 131.043 18.892 130.563 18.0387C130.096 17.172 129.863 16.172 129.863 15.0387C129.863 13.9054 130.09 12.912 130.543 12.0587C131.01 11.192 131.656 10.5254 132.483 10.0587C133.323 9.59203 134.283 9.35869 135.363 9.35869C136.403 9.35869 137.33 9.58536 138.143 10.0387C138.956 10.492 139.59 11.132 140.043 11.9587C140.496 12.772 140.723 13.712 140.723 14.7787ZM138.343 14.0587C138.33 13.2187 138.03 12.5454 137.443 12.0387C136.856 11.532 136.13 11.2787 135.263 11.2787C134.476 11.2787 133.803 11.532 133.243 12.0387C132.683 12.532 132.35 13.2054 132.243 14.0587H138.343Z" fill="white"/>
<path d="M146.967 20.7387C146.1 20.7387 145.32 20.5854 144.627 20.2787C143.947 19.9587 143.407 19.532 143.007 18.9987C142.607 18.452 142.393 17.8454 142.367 17.1787H144.727C144.767 17.6454 144.987 18.0387 145.387 18.3587C145.8 18.6654 146.313 18.8187 146.927 18.8187C147.567 18.8187 148.06 18.6987 148.407 18.4587C148.767 18.2054 148.947 17.8854 148.947 17.4987C148.947 17.0854 148.747 16.7787 148.347 16.5787C147.96 16.3787 147.34 16.1587 146.487 15.9187C145.66 15.692 144.987 15.472 144.467 15.2587C143.947 15.0454 143.493 14.7187 143.107 14.2787C142.733 13.8387 142.547 13.2587 142.547 12.5387C142.547 11.952 142.72 11.4187 143.067 10.9387C143.413 10.4454 143.907 10.0587 144.547 9.77869C145.2 9.49869 145.947 9.35869 146.787 9.35869C148.04 9.35869 149.047 9.67869 149.807 10.3187C150.58 10.9454 150.993 11.8054 151.047 12.8987H148.767C148.727 12.4054 148.527 12.012 148.167 11.7187C147.807 11.4254 147.32 11.2787 146.707 11.2787C146.107 11.2787 145.647 11.392 145.327 11.6187C145.007 11.8454 144.847 12.1454 144.847 12.5187C144.847 12.812 144.953 13.0587 145.167 13.2587C145.38 13.4587 145.64 13.6187 145.947 13.7387C146.253 13.8454 146.707 13.9854 147.307 14.1587C148.107 14.372 148.76 14.592 149.267 14.8187C149.787 15.032 150.233 15.352 150.607 15.7787C150.98 16.2054 151.173 16.772 151.187 17.4787C151.187 18.1054 151.013 18.6654 150.667 19.1587C150.32 19.652 149.827 20.0387 149.187 20.3187C148.56 20.5987 147.82 20.7387 146.967 20.7387Z" fill="white"/>
</g>
<g id="Group 25">
<path id="Vector (Stroke)" fill-rule="evenodd" clip-rule="evenodd" d="M15.7344 6.00439V26.1006H27.5573V6.00439H15.7344ZM13.7344 5.82753C13.7344 4.92241 14.4172 4.00439 15.4752 4.00439H27.8165C28.8745 4.00439 29.5573 4.92242 29.5573 5.82753V26.2774C29.5573 27.1826 28.8745 28.1006 27.8165 28.1006H15.4752C14.4172 28.1006 13.7344 27.1826 13.7344 26.2774V5.82753Z" fill="white"/>
<path id="Vector (Stroke)_2" fill-rule="evenodd" clip-rule="evenodd" d="M19.2342 0.0522523L19.2361 0.0522467C19.628 0.0519194 20.0011 0.180731 20.3084 0.40728C20.6138 0.632451 20.8382 0.941336 20.9682 1.28411C20.9684 1.28443 20.9685 1.28475 20.9686 1.28507L21.7341 3.29103C22.2337 4.60026 21.2669 6.0041 19.8656 6.0041H15.7352V26.138C15.7352 26.1434 15.736 26.148 15.7369 26.1512C15.845 26.5524 15.7293 26.9831 15.4341 27.2712C15.2787 27.4229 15.032 27.5711 14.7109 27.5814C14.3721 27.5924 14.0936 27.4453 13.9101 27.2629C13.7124 27.0664 13.5626 26.831 13.4647 26.5769L13.4637 26.5742L6.37636 8.00567C6.37619 8.00521 6.37601 8.00476 6.37584 8.00431C6.28796 7.77528 6.24262 7.53245 6.24033 7.28891C6.23803 7.0449 6.27895 6.80087 6.36265 6.56994C6.44637 6.33896 6.5725 6.12229 6.73836 5.93456C6.9044 5.74663 7.10791 5.59054 7.34045 5.4809L18.4727 0.224847C18.4727 0.224831 18.4728 0.224815 18.4728 0.224799C18.7097 0.112947 18.9689 0.0530021 19.2342 0.0522523ZM18.8981 1.12567L18.8998 1.12907L18.8981 1.12567L7.76689 6.38538L7.7669 6.3854M13.7352 21.6768L8.244 7.29017L8.24311 7.28787C8.24201 7.28498 8.24032 7.27868 8.24024 7.27008C8.24023 7.26929 8.24024 7.26852 8.24025 7.26777L19.146 2.11865L19.8656 4.0041L15.6004 4.0041M13.7352 5.96539V21.6768V5.96539ZM13.7352 5.96539V5.96443H14.7352L13.7352 5.96664C13.7352 5.96622 13.7352 5.96581 13.7352 5.96539ZM19.3265 2.03346C19.3266 2.03341 19.3267 2.03336 19.3268 2.0333L19.3267 2.03335L19.3265 2.03346Z" fill="white"/>
<path id="Vector (Stroke)_3" fill-rule="evenodd" clip-rule="evenodd" d="M10.3795 0.00622499C10.4067 0.00401181 10.4342 0.00290162 10.4619 0.00293023C10.7222 0.00319916 10.9768 0.0607088 11.2102 0.168646C11.4432 0.276387 11.6475 0.430774 11.8145 0.617244C11.8149 0.617745 11.8154 0.618245 11.8158 0.618746L13.1507 2.10299C14.0466 3.09912 13.7289 4.67719 12.5174 5.24905L8.2399 7.26809C8.2399 7.26787 8.2399 7.26831 8.2399 7.26809C8.23997 7.27639 8.24161 7.28308 8.24261 7.28568L8.24349 7.28797L15.3286 25.8556C15.571 26.1824 15.622 26.6107 15.4721 26.9768C15.3925 27.1709 15.2291 27.4062 14.9385 27.5458C14.6284 27.6948 14.3088 27.6698 14.0642 27.5714C13.7989 27.4648 13.567 27.2983 13.3808 27.0917L0.554896 12.8265C0.554489 12.826 0.554082 12.8256 0.553676 12.8251C0.386198 12.6394 0.258139 12.4244 0.17228 12.1947C0.0862349 11.9645 0.0429688 11.7208 0.0429688 11.4768C0.0429688 11.2327 0.0862349 10.989 0.17228 10.7589C0.258169 10.5291 0.386292 10.314 0.553865 10.1282C0.554209 10.1279 0.554552 10.1275 0.554896 10.1271L9.10348 0.618675C9.10371 0.618418 9.10394 0.61816 9.10417 0.617903C9.27164 0.431172 9.47648 0.276682 9.71008 0.169074C9.9199 0.0724214 10.1468 0.0165038 10.3795 0.00622499ZM11.8821 22.4334L2.04503 11.4925C2.04404 11.4891 2.04297 11.4837 2.04297 11.4768C2.04297 11.4699 2.04404 11.4644 2.04504 11.4611L6.31719 6.70924C6.26408 6.89718 6.23826 7.0918 6.23998 7.28643C6.24213 7.52993 6.28738 7.77275 6.3752 8.00176C6.37539 8.00227 6.37559 8.00278 6.37578 8.00328L11.8821 22.4334ZM7.48109 5.41466L11.6637 3.44041L10.4596 2.10167L7.48109 5.41466ZM10.325 1.95194C10.3249 1.95181 10.3251 1.95207 10.325 1.95194V1.95194Z" fill="white"/>
</g>
</g>
</svg>
