<svg width="82" height="27" viewBox="0 0 82 27" fill="none" xmlns="http://www.w3.org/2000/svg">
<g id="Group 546">
<g id="Clan">
<path d="M36.2969 12.5788C36.2969 11.2188 36.6102 9.99879 37.2369 8.91879C37.8769 7.83879 38.7369 6.99879 39.8169 6.39879C40.9102 5.78545 42.1035 5.47879 43.3969 5.47879C44.8769 5.47879 46.1902 5.84545 47.3369 6.57879C48.4969 7.29879 49.3369 8.32546 49.8569 9.65879H47.1169C46.7569 8.92546 46.2569 8.37879 45.6169 8.01879C44.9769 7.65879 44.2369 7.47879 43.3969 7.47879C42.4769 7.47879 41.6569 7.68546 40.9369 8.09879C40.2169 8.51212 39.6502 9.10546 39.2369 9.87879C38.8369 10.6521 38.6369 11.5521 38.6369 12.5788C38.6369 13.6055 38.8369 14.5055 39.2369 15.2788C39.6502 16.0521 40.2169 16.6521 40.9369 17.0788C41.6569 17.4921 42.4769 17.6988 43.3969 17.6988C44.2369 17.6988 44.9769 17.5188 45.6169 17.1588C46.2569 16.7988 46.7569 16.2521 47.1169 15.5188H49.8569C49.3369 16.8521 48.4969 17.8788 47.3369 18.5988C46.1902 19.3188 44.8769 19.6788 43.3969 19.6788C42.0902 19.6788 40.8969 19.3788 39.8169 18.7788C38.7369 18.1655 37.8769 17.3188 37.2369 16.2388C36.6102 15.1588 36.2969 13.9388 36.2969 12.5788Z" fill="white"/>
<path d="M54.8056 4.75879V19.5588H52.5256V4.75879H54.8056Z" fill="white"/>
<path d="M57.0391 13.9988C57.0391 12.8921 57.2657 11.9121 57.7191 11.0588C58.1857 10.2055 58.8124 9.54546 59.5991 9.07879C60.3991 8.59879 61.2791 8.35879 62.2391 8.35879C63.1057 8.35879 63.8591 8.53212 64.4991 8.87879C65.1524 9.21212 65.6724 9.63212 66.0591 10.1388V8.53879H68.3591V19.5588H66.0591V17.9188C65.6724 18.4388 65.1457 18.8721 64.4791 19.2188C63.8124 19.5655 63.0524 19.7388 62.1991 19.7388C61.2524 19.7388 60.3857 19.4988 59.5991 19.0188C58.8124 18.5255 58.1857 17.8455 57.7191 16.9788C57.2657 16.0988 57.0391 15.1055 57.0391 13.9988ZM66.0591 14.0388C66.0591 13.2788 65.8991 12.6188 65.5791 12.0588C65.2724 11.4988 64.8657 11.0721 64.3591 10.7788C63.8524 10.4855 63.3057 10.3388 62.7191 10.3388C62.1324 10.3388 61.5857 10.4855 61.0791 10.7788C60.5724 11.0588 60.1591 11.4788 59.8391 12.0388C59.5324 12.5855 59.3791 13.2388 59.3791 13.9988C59.3791 14.7588 59.5324 15.4255 59.8391 15.9988C60.1591 16.5721 60.5724 17.0121 61.0791 17.3188C61.5991 17.6121 62.1457 17.7588 62.7191 17.7588C63.3057 17.7588 63.8524 17.6121 64.3591 17.3188C64.8657 17.0255 65.2724 16.5988 65.5791 16.0388C65.8991 15.4655 66.0591 14.7988 66.0591 14.0388Z" fill="white"/>
<path d="M76.9137 8.35879C77.7804 8.35879 78.5537 8.53879 79.2337 8.89879C79.9271 9.25879 80.4671 9.79212 80.8537 10.4988C81.2404 11.2055 81.4338 12.0588 81.4338 13.0588V19.5588H79.1737V13.3988C79.1737 12.4121 78.9271 11.6588 78.4338 11.1388C77.9404 10.6055 77.2671 10.3388 76.4137 10.3388C75.5604 10.3388 74.8804 10.6055 74.3737 11.1388C73.8804 11.6588 73.6337 12.4121 73.6337 13.3988V19.5588H71.3537V8.53879H73.6337V9.79879C74.0071 9.34546 74.4804 8.99212 75.0537 8.73879C75.6404 8.48546 76.2604 8.35879 76.9137 8.35879Z" fill="white"/>
</g>
<path id="Vector (Stroke)" fill-rule="evenodd" clip-rule="evenodd" d="M2.55664 23.7103C2.55627 24.052 2.64911 24.2657 2.82594 24.4622C2.99731 24.6526 3.09751 24.6713 3.22331 24.6713H7.88998V16.4483H2.55664V23.7103ZM21.89 26.6713C22.6224 26.6722 23.25 26.3823 23.7726 25.8016C24.2953 25.2208 24.5566 24.523 24.5566 23.7081V14.4483H12.5566V26.6713H21.89ZM14.5566 24.6713H21.8927C22.0158 24.6714 22.1147 24.6541 22.286 24.4637C22.4629 24.2671 22.5566 24.0522 22.5566 23.7081V16.4483H14.5566V24.6713ZM3.22061 2.00293C3.0975 2.00276 2.99862 2.0201 2.82727 2.2105C2.65034 2.4071 2.55664 2.62201 2.55664 2.96608V9.48513H22.5566V2.96389C22.557 2.6222 22.4642 2.40847 22.2873 2.21198C22.116 2.02155 22.0158 2.00293 21.89 2.00293L3.22061 2.00293ZM1.33931 25.8001C1.86198 26.3809 2.48998 26.6713 3.22331 26.6713H9.88998V14.4483H0.556643V23.7081C0.555754 24.522 0.816643 25.2193 1.33931 25.8001ZM0.556643 11.4851H24.5566V2.96608C24.5575 2.1522 24.2966 1.45487 23.774 0.874097C23.2513 0.293321 22.6233 0.0029322 21.89 0.0029322H3.22331C2.49086 0.00194449 1.86331 0.291839 1.34064 0.872616C0.817976 1.45339 0.556643 2.15121 0.556643 2.96608V11.4851Z" fill="white"/>
</g>
</svg>
