<svg width="100" height="25" viewBox="0 0 100 25" fill="none" xmlns="http://www.w3.org/2000/svg">
<g id="Group 547">
<g id="Sign in">
<path d="M40.0799 19.1401C39.1466 19.1401 38.3066 18.9801 37.5599 18.6601C36.8132 18.3268 36.2266 17.8601 35.7999 17.2601C35.3732 16.6601 35.1599 15.9601 35.1599 15.1601H37.5999C37.6532 15.7601 37.8866 16.2534 38.2999 16.6401C38.7266 17.0268 39.3199 17.2201 40.0799 17.2201C40.8666 17.2201 41.4799 17.0334 41.9199 16.6601C42.3599 16.2734 42.5799 15.7801 42.5799 15.1801C42.5799 14.7134 42.4399 14.3334 42.1599 14.0401C41.8932 13.7468 41.5532 13.5201 41.1399 13.3601C40.7399 13.2001 40.1799 13.0268 39.4599 12.8401C38.5532 12.6001 37.8132 12.3601 37.2399 12.1201C36.6799 11.8668 36.1999 11.4801 35.7999 10.9601C35.3999 10.4401 35.1999 9.74676 35.1999 8.8801C35.1999 8.0801 35.3999 7.3801 35.7999 6.7801C36.1999 6.1801 36.7599 5.7201 37.4799 5.4001C38.1999 5.0801 39.0332 4.9201 39.9799 4.9201C41.3266 4.9201 42.4266 5.2601 43.2799 5.9401C44.1466 6.60676 44.6266 7.52676 44.7199 8.7001H42.1999C42.1599 8.19343 41.9199 7.7601 41.4799 7.4001C41.0399 7.0401 40.4599 6.8601 39.7399 6.8601C39.0866 6.8601 38.5532 7.02676 38.1399 7.3601C37.7266 7.69343 37.5199 8.17343 37.5199 8.8001C37.5199 9.22676 37.6466 9.5801 37.8999 9.8601C38.1666 10.1268 38.4999 10.3401 38.8999 10.5001C39.2999 10.6601 39.8466 10.8334 40.5399 11.0201C41.4599 11.2734 42.2066 11.5268 42.7799 11.7801C43.3666 12.0334 43.8599 12.4268 44.2599 12.9601C44.6732 13.4801 44.8799 14.1801 44.8799 15.0601C44.8799 15.7668 44.6866 16.4334 44.2999 17.0601C43.9266 17.6868 43.3732 18.1934 42.6399 18.5801C41.9199 18.9534 41.0666 19.1401 40.0799 19.1401Z" fill="white"/>
<path d="M48.7302 6.5201C48.3169 6.5201 47.9702 6.3801 47.6902 6.1001C47.4102 5.8201 47.2702 5.47343 47.2702 5.0601C47.2702 4.64676 47.4102 4.3001 47.6902 4.0201C47.9702 3.7401 48.3169 3.6001 48.7302 3.6001C49.1302 3.6001 49.4702 3.7401 49.7502 4.0201C50.0302 4.3001 50.1702 4.64676 50.1702 5.0601C50.1702 5.47343 50.0302 5.8201 49.7502 6.1001C49.4702 6.3801 49.1302 6.5201 48.7302 6.5201ZM49.8502 7.9801V19.0001H47.5702V7.9801H49.8502Z" fill="white"/>
<path d="M57.2837 7.8001C58.137 7.8001 58.8903 7.97343 59.5437 8.3201C60.2103 8.65343 60.7303 9.07343 61.1037 9.5801V7.9801H63.4037V19.1801C63.4037 20.1934 63.1903 21.0934 62.7637 21.8801C62.337 22.6801 61.717 23.3068 60.9037 23.7601C60.1037 24.2134 59.1437 24.4401 58.0237 24.4401C56.5303 24.4401 55.2903 24.0868 54.3037 23.3801C53.317 22.6868 52.757 21.7401 52.6237 20.5401H54.8837C55.057 21.1134 55.4237 21.5734 55.9837 21.9201C56.557 22.2801 57.237 22.4601 58.0237 22.4601C58.9437 22.4601 59.6837 22.1801 60.2437 21.6201C60.817 21.0601 61.1037 20.2468 61.1037 19.1801V17.3401C60.717 17.8601 60.1903 18.3001 59.5237 18.6601C58.8703 19.0068 58.1237 19.1801 57.2837 19.1801C56.3237 19.1801 55.4437 18.9401 54.6437 18.4601C53.857 17.9668 53.2303 17.2868 52.7637 16.4201C52.3103 15.5401 52.0837 14.5468 52.0837 13.4401C52.0837 12.3334 52.3103 11.3534 52.7637 10.5001C53.2303 9.64676 53.857 8.98676 54.6437 8.5201C55.4437 8.0401 56.3237 7.8001 57.2837 7.8001ZM61.1037 13.4801C61.1037 12.7201 60.9437 12.0601 60.6237 11.5001C60.317 10.9401 59.9103 10.5134 59.4037 10.2201C58.897 9.92676 58.3503 9.7801 57.7637 9.7801C57.177 9.7801 56.6303 9.92676 56.1237 10.2201C55.617 10.5001 55.2037 10.9201 54.8837 11.4801C54.577 12.0268 54.4237 12.6801 54.4237 13.4401C54.4237 14.2001 54.577 14.8668 54.8837 15.4401C55.2037 16.0134 55.617 16.4534 56.1237 16.7601C56.6437 17.0534 57.1903 17.2001 57.7637 17.2001C58.3503 17.2001 58.897 17.0534 59.4037 16.7601C59.9103 16.4668 60.317 16.0401 60.6237 15.4801C60.9437 14.9068 61.1037 14.2401 61.1037 13.4801Z" fill="white"/>
<path d="M71.9584 7.8001C72.825 7.8001 73.5984 7.9801 74.2784 8.3401C74.9717 8.7001 75.5117 9.23343 75.8983 9.9401C76.285 10.6468 76.4784 11.5001 76.4784 12.5001V19.0001H74.2183V12.8401C74.2183 11.8534 73.9717 11.1001 73.4784 10.5801C72.985 10.0468 72.3117 9.7801 71.4584 9.7801C70.605 9.7801 69.925 10.0468 69.4184 10.5801C68.925 11.1001 68.6783 11.8534 68.6783 12.8401V19.0001H66.3983V7.9801H68.6783V9.2401C69.0517 8.78677 69.525 8.43343 70.0984 8.1801C70.685 7.92677 71.305 7.8001 71.9584 7.8001Z" fill="white"/>
<path d="M85.7419 6.5201C85.3286 6.5201 84.9819 6.3801 84.7019 6.1001C84.4219 5.8201 84.2819 5.47343 84.2819 5.0601C84.2819 4.64676 84.4219 4.3001 84.7019 4.0201C84.9819 3.7401 85.3286 3.6001 85.7419 3.6001C86.1419 3.6001 86.4819 3.7401 86.7619 4.0201C87.0419 4.3001 87.1819 4.64676 87.1819 5.0601C87.1819 5.47343 87.0419 5.8201 86.7619 6.1001C86.4819 6.3801 86.1419 6.5201 85.7419 6.5201ZM86.8619 7.9801V19.0001H84.5819V7.9801H86.8619Z" fill="white"/>
<path d="M95.4154 7.8001C96.282 7.8001 97.0554 7.9801 97.7354 8.3401C98.4287 8.7001 98.9687 9.23343 99.3554 9.9401C99.742 10.6468 99.9354 11.5001 99.9354 12.5001V19.0001H97.6754V12.8401C97.6754 11.8534 97.4287 11.1001 96.9354 10.5801C96.4421 10.0468 95.7687 9.7801 94.9154 9.7801C94.062 9.7801 93.382 10.0468 92.8754 10.5801C92.382 11.1001 92.1354 11.8534 92.1354 12.8401V19.0001H89.8554V7.9801H92.1354V9.2401C92.5087 8.78677 92.982 8.43343 93.5554 8.1801C94.142 7.92677 94.7621 7.8001 95.4154 7.8001Z" fill="white"/>
</g>
<path id="Vector" d="M12 0C13.5913 0 15.1174 0.632141 16.2426 1.75736C17.3679 2.88258 18 4.4087 18 6C18 7.5913 17.3679 9.11742 16.2426 10.2426C15.1174 11.3679 13.5913 12 12 12C10.4087 12 8.88258 11.3679 7.75736 10.2426C6.63214 9.11742 6 7.5913 6 6C6 4.4087 6.63214 2.88258 7.75736 1.75736C8.88258 0.632141 10.4087 0 12 0ZM12 15C18.63 15 24 17.685 24 21V24H0V21C0 17.685 5.37 15 12 15Z" fill="white"/>
</g>
</svg>
