<svg width="87" height="24" viewBox="0 0 87 24" fill="none" xmlns="http://www.w3.org/2000/svg">
<g id="Group 43">
<g id="Group 28">
<g id="Store">
<path d="M41.1231 19.1399C40.1898 19.1399 39.3498 18.9799 38.6031 18.6599C37.8565 18.3266 37.2698 17.8599 36.8431 17.2599C36.4165 16.6599 36.2031 15.9599 36.2031 15.1599H38.6431C38.6965 15.7599 38.9298 16.2533 39.3431 16.6399C39.7698 17.0266 40.3631 17.2199 41.1231 17.2199C41.9098 17.2199 42.5231 17.0333 42.9631 16.6599C43.4031 16.2733 43.6231 15.7799 43.6231 15.1799C43.6231 14.7133 43.4831 14.3333 43.2031 14.0399C42.9365 13.7466 42.5965 13.5199 42.1831 13.3599C41.7831 13.1999 41.2231 13.0266 40.5031 12.8399C39.5965 12.5999 38.8565 12.3599 38.2831 12.1199C37.7231 11.8666 37.2431 11.4799 36.8431 10.9599C36.4431 10.4399 36.2431 9.74659 36.2431 8.87992C36.2431 8.07992 36.4431 7.37992 36.8431 6.77992C37.2431 6.17992 37.8031 5.71992 38.5231 5.39992C39.2431 5.07992 40.0765 4.91992 41.0231 4.91992C42.3698 4.91992 43.4698 5.25992 44.3231 5.93992C45.1898 6.60659 45.6698 7.52659 45.7631 8.69992H43.2431C43.2031 8.19326 42.9631 7.75992 42.5231 7.39992C42.0831 7.03992 41.5031 6.85992 40.7831 6.85992C40.1298 6.85992 39.5965 7.02659 39.1831 7.35992C38.7698 7.69326 38.5631 8.17326 38.5631 8.79992C38.5631 9.22659 38.6898 9.57992 38.9431 9.85992C39.2098 10.1266 39.5431 10.3399 39.9431 10.4999C40.3431 10.6599 40.8898 10.8333 41.5831 11.0199C42.5031 11.2733 43.2498 11.5266 43.8231 11.7799C44.4098 12.0333 44.9031 12.4266 45.3031 12.9599C45.7165 13.4799 45.9231 14.1799 45.9231 15.0599C45.9231 15.7666 45.7298 16.4333 45.3431 17.0599C44.9698 17.6866 44.4165 18.1933 43.6831 18.5799C42.9631 18.9533 42.1098 19.1399 41.1231 19.1399Z" fill="white"/>
<path d="M51.2734 9.83992V15.9399C51.2734 16.3533 51.3668 16.6533 51.5534 16.8399C51.7534 17.0133 52.0868 17.0999 52.5534 17.0999H53.9534V18.9999H52.1534C51.1268 18.9999 50.3401 18.7599 49.7934 18.2799C49.2468 17.7999 48.9734 17.0199 48.9734 15.9399V9.83992H47.6734V7.97992H48.9734V5.23992H51.2734V7.97992H53.9534V9.83992H51.2734Z" fill="white"/>
<path d="M60.8348 19.1799C59.7948 19.1799 58.8548 18.9466 58.0148 18.4799C57.1748 17.9999 56.5148 17.3333 56.0348 16.4799C55.5548 15.6133 55.3148 14.6133 55.3148 13.4799C55.3148 12.3599 55.5615 11.3666 56.0548 10.4999C56.5482 9.63326 57.2215 8.96659 58.0748 8.49992C58.9282 8.03326 59.8815 7.79992 60.9348 7.79992C61.9882 7.79992 62.9415 8.03326 63.7948 8.49992C64.6482 8.96659 65.3215 9.63326 65.8148 10.4999C66.3082 11.3666 66.5548 12.3599 66.5548 13.4799C66.5548 14.5999 66.3015 15.5933 65.7948 16.4599C65.2882 17.3266 64.5948 17.9999 63.7148 18.4799C62.8482 18.9466 61.8882 19.1799 60.8348 19.1799ZM60.8348 17.1999C61.4215 17.1999 61.9682 17.0599 62.4748 16.7799C62.9948 16.4999 63.4148 16.0799 63.7348 15.5199C64.0548 14.9599 64.2148 14.2799 64.2148 13.4799C64.2148 12.6799 64.0615 12.0066 63.7548 11.4599C63.4482 10.8999 63.0415 10.4799 62.5348 10.1999C62.0282 9.91992 61.4815 9.77992 60.8948 9.77992C60.3082 9.77992 59.7615 9.91992 59.2548 10.1999C58.7615 10.4799 58.3682 10.8999 58.0748 11.4599C57.7815 12.0066 57.6348 12.6799 57.6348 13.4799C57.6348 14.6666 57.9348 15.5866 58.5348 16.2399C59.1482 16.8799 59.9148 17.1999 60.8348 17.1999Z" fill="white"/>
<path d="M71.0887 9.57992C71.4221 9.01992 71.8621 8.58659 72.4088 8.27992C72.9688 7.95992 73.6288 7.79992 74.3888 7.79992V10.1599H73.8088C72.9154 10.1599 72.2354 10.3866 71.7687 10.8399C71.3154 11.2933 71.0887 12.0799 71.0887 13.1999V18.9999H68.8088V7.97992H71.0887V9.57992Z" fill="white"/>
<path d="M86.5845 13.2199C86.5845 13.6333 86.5579 14.0066 86.5045 14.3399H78.0845C78.1512 15.2199 78.4779 15.9266 79.0645 16.4599C79.6512 16.9933 80.3712 17.2599 81.2245 17.2599C82.4512 17.2599 83.3179 16.7466 83.8245 15.7199H86.2845C85.9512 16.7333 85.3445 17.5666 84.4645 18.2199C83.5979 18.8599 82.5179 19.1799 81.2245 19.1799C80.1712 19.1799 79.2245 18.9466 78.3845 18.4799C77.5579 17.9999 76.9045 17.3333 76.4245 16.4799C75.9579 15.6133 75.7245 14.6133 75.7245 13.4799C75.7245 12.3466 75.9512 11.3533 76.4045 10.4999C76.8712 9.63326 77.5179 8.96659 78.3445 8.49992C79.1845 8.03326 80.1445 7.79992 81.2245 7.79992C82.2645 7.79992 83.1912 8.02659 84.0045 8.47992C84.8179 8.93326 85.4512 9.57326 85.9045 10.3999C86.3579 11.2133 86.5845 12.1533 86.5845 13.2199ZM84.2045 12.4999C84.1912 11.6599 83.8912 10.9866 83.3045 10.4799C82.7179 9.97326 81.9912 9.71992 81.1245 9.71992C80.3379 9.71992 79.6645 9.97326 79.1045 10.4799C78.5445 10.9733 78.2112 11.6466 78.1045 12.4999H84.2045Z" fill="white"/>
</g>
<path id="Vector" d="M24.9196 7.85333L23.6044 2.02667C23.3288 0.826667 22.3518 0 21.2119 0H3.81364C2.68632 0 1.69679 0.84 1.43374 2.02667L0.118538 7.85333C-0.18208 9.21333 0.0934869 10.6 0.895136 11.6933C0.995342 11.84 1.13313 11.9467 1.24586 12.08V21.3333C1.24586 22.8 2.37318 24 3.75101 24H21.2871C22.6649 24 23.7922 22.8 23.7922 21.3333V12.08C23.905 11.96 24.0428 11.84 24.143 11.7067C24.9446 10.6133 25.2327 9.21333 24.9196 7.85333ZM21.1744 2.65333L22.4896 8.48C22.6148 9.04 22.5021 9.6 22.1764 10.04C22.0011 10.28 21.6253 10.6667 20.999 10.6667C20.2349 10.6667 19.5711 10.0133 19.4834 9.14667L18.7569 2.66667L21.1744 2.65333ZM13.7716 2.66667H16.2267L16.9031 8.69333C16.9657 9.21334 16.8154 9.73333 16.4897 10.12C16.2142 10.4667 15.8133 10.6667 15.2998 10.6667C14.4605 10.6667 13.7716 9.88 13.7716 8.92V2.66667ZM8.1225 8.69333L8.81142 2.66667H11.2665V8.92C11.2665 9.88 10.5776 10.6667 9.65065 10.6667C9.22477 10.6667 8.83647 10.4667 8.53585 10.12C8.37971 9.92444 8.26255 9.69712 8.1915 9.45187C8.12044 9.20661 8.09697 8.94854 8.1225 8.69333ZM2.54854 8.48L3.81364 2.66667H6.28122L5.55472 9.14667C5.45452 10.0133 4.80318 10.6667 4.0391 10.6667C3.42534 10.6667 3.03704 10.28 2.87421 10.04C2.53601 9.61333 2.42328 9.04 2.54854 8.48ZM3.75101 21.3333V13.2933C3.85122 13.3067 3.9389 13.3333 4.0391 13.3333C5.12885 13.3333 6.11838 12.8533 6.84488 12.0667C7.59642 12.8667 8.59848 13.3333 9.73833 13.3333C10.8281 13.3333 11.8051 12.8533 12.5316 12.0933C13.2706 12.8533 14.2727 13.3333 15.4 13.3333C16.4521 13.3333 17.4542 12.8667 18.2057 12.0667C18.9322 12.8533 19.9218 13.3333 21.0115 13.3333C21.1117 13.3333 21.1994 13.3067 21.2996 13.2933V21.3333H3.75101Z" fill="white"/>
</g>
</g>
</svg>
