<svg width="95" height="28" viewBox="0 0 95 28" fill="none" xmlns="http://www.w3.org/2000/svg">
<g id="Group 43">
<g id="Group 28">
<g id="Home">
<path d="M47.6 3.1001V17.0001H45.32V10.9201H38.78V17.0001H36.5V3.1001H38.78V9.0601H45.32V3.1001H47.6Z" fill="white"/>
<path d="M55.3816 17.1801C54.3416 17.1801 53.4016 16.9468 52.5616 16.4801C51.7216 16.0001 51.0616 15.3334 50.5816 14.4801C50.1016 13.6134 49.8616 12.6134 49.8616 11.4801C49.8616 10.3601 50.1082 9.36677 50.6016 8.5001C51.0949 7.63343 51.7682 6.96676 52.6216 6.5001C53.4749 6.03343 54.4282 5.8001 55.4816 5.8001C56.5349 5.8001 57.4882 6.03343 58.3416 6.5001C59.1949 6.96676 59.8682 7.63343 60.3616 8.5001C60.8549 9.36677 61.1016 10.3601 61.1016 11.4801C61.1016 12.6001 60.8482 13.5934 60.3416 14.4601C59.8349 15.3268 59.1416 16.0001 58.2616 16.4801C57.3949 16.9468 56.4349 17.1801 55.3816 17.1801ZM55.3816 15.2001C55.9682 15.2001 56.5149 15.0601 57.0216 14.7801C57.5416 14.5001 57.9616 14.0801 58.2816 13.5201C58.6016 12.9601 58.7616 12.2801 58.7616 11.4801C58.7616 10.6801 58.6082 10.0068 58.3016 9.4601C57.9949 8.9001 57.5882 8.4801 57.0816 8.2001C56.5749 7.9201 56.0282 7.7801 55.4416 7.7801C54.8549 7.7801 54.3082 7.9201 53.8016 8.2001C53.3082 8.4801 52.9149 8.9001 52.6216 9.4601C52.3282 10.0068 52.1816 10.6801 52.1816 11.4801C52.1816 12.6668 52.4816 13.5868 53.0816 14.2401C53.6949 14.8801 54.4616 15.2001 55.3816 15.2001Z" fill="white"/>
<path d="M76.6955 5.8001C77.5621 5.8001 78.3355 5.9801 79.0155 6.3401C79.7088 6.7001 80.2488 7.23343 80.6355 7.9401C81.0355 8.64676 81.2355 9.5001 81.2355 10.5001V17.0001H78.9755V10.8401C78.9755 9.85343 78.7288 9.1001 78.2355 8.5801C77.7421 8.04676 77.0688 7.7801 76.2155 7.7801C75.3621 7.7801 74.6821 8.04676 74.1755 8.5801C73.6821 9.1001 73.4355 9.85343 73.4355 10.8401V17.0001H71.1755V10.8401C71.1755 9.85343 70.9288 9.1001 70.4355 8.5801C69.9421 8.04676 69.2688 7.7801 68.4155 7.7801C67.5621 7.7801 66.8821 8.04676 66.3755 8.5801C65.8821 9.1001 65.6355 9.85343 65.6355 10.8401V17.0001H63.3555V5.9801H65.6355V7.2401C66.0088 6.78676 66.4821 6.43343 67.0555 6.1801C67.6288 5.92677 68.2421 5.8001 68.8955 5.8001C69.7755 5.8001 70.5621 5.98677 71.2555 6.3601C71.9488 6.73343 72.4821 7.27343 72.8555 7.9801C73.1888 7.31343 73.7088 6.78676 74.4155 6.4001C75.1221 6.0001 75.8821 5.8001 76.6955 5.8001Z" fill="white"/>
<path d="M94.2367 11.2201C94.2367 11.6334 94.2101 12.0068 94.1567 12.3401H85.7367C85.8034 13.2201 86.1301 13.9268 86.7167 14.4601C87.3034 14.9934 88.0234 15.2601 88.8767 15.2601C90.1034 15.2601 90.9701 14.7468 91.4767 13.7201H93.9367C93.6034 14.7334 92.9967 15.5668 92.1167 16.2201C91.25 16.8601 90.1701 17.1801 88.8767 17.1801C87.8234 17.1801 86.8767 16.9468 86.0367 16.4801C85.2101 16.0001 84.5567 15.3334 84.0767 14.4801C83.6101 13.6134 83.3767 12.6134 83.3767 11.4801C83.3767 10.3468 83.6034 9.35343 84.0567 8.5001C84.5234 7.63343 85.1701 6.96676 85.9967 6.5001C86.8367 6.03343 87.7967 5.8001 88.8767 5.8001C89.9167 5.8001 90.8434 6.02677 91.6567 6.4801C92.4701 6.93343 93.1034 7.57343 93.5567 8.4001C94.0101 9.21343 94.2367 10.1534 94.2367 11.2201ZM91.8567 10.5001C91.8434 9.6601 91.5434 8.98676 90.9567 8.4801C90.3701 7.97343 89.6434 7.7201 88.7767 7.7201C87.9901 7.7201 87.3167 7.97343 86.7567 8.4801C86.1967 8.97343 85.8634 9.64676 85.7567 10.5001H91.8567Z" fill="white"/>
</g>
<path id="Vector (Stroke)" fill-rule="evenodd" clip-rule="evenodd" d="M11.3673 1.2485C11.8192 0.865896 12.3916 0.64209 13 0.64209C13.6084 0.64209 14.1808 0.865896 14.6327 1.2485L24.2577 9.39715C24.5803 9.67027 24.83 10.0138 24.9977 10.3925C25.1654 10.7711 25.25 11.1815 25.25 11.5929V24.7859C25.25 25.4835 25.0059 26.1784 24.5329 26.7123C24.0556 27.2511 23.3734 27.5881 22.625 27.5881H17.125C16.3766 27.5881 15.6944 27.2511 15.2171 26.7123C14.7441 26.1784 14.5 25.4835 14.5 24.7859V20.1296C14.5 20.0038 14.4544 19.9092 14.4116 19.8609C14.3918 19.8385 14.3767 19.8302 14.3717 19.8279C14.3713 19.8277 14.371 19.8276 14.3707 19.8274H11.6293C11.629 19.8276 11.6287 19.8277 11.6283 19.8279C11.6233 19.8302 11.6082 19.8385 11.5884 19.8609C11.5456 19.9092 11.5 20.0038 11.5 20.1296V24.7859C11.5 25.4835 11.2559 26.1784 10.7829 26.7123C10.3056 27.2511 9.62344 27.5881 8.875 27.5881H3.375C2.62656 27.5881 1.94439 27.2511 1.46707 26.7123C0.994111 26.1784 0.75 25.4835 0.75 24.7859V11.5929C0.75 11.1815 0.834584 10.7711 1.00226 10.3925C1.17001 10.0138 1.41972 9.67027 1.74232 9.39715L11.3673 1.2485ZM13 3.14424C12.996 3.14643 12.9901 3.15022 12.9827 3.15653L3.35768 11.3052C3.33874 11.3212 3.31124 11.3527 3.28806 11.405C3.26481 11.4575 3.25 11.5223 3.25 11.5929V24.7859C3.25 24.9117 3.29562 25.0063 3.33839 25.0546C3.3582 25.0769 3.37327 25.0852 3.37826 25.0876C3.37866 25.0878 3.37902 25.0879 3.37933 25.0881H8.87067C8.87098 25.0879 8.87134 25.0878 8.87174 25.0876C8.87673 25.0852 8.8918 25.0769 8.91161 25.0546C8.95438 25.0063 9 24.9117 9 24.7859V20.1296C9 19.432 9.24411 18.737 9.71707 18.2032C10.1944 17.6644 10.8766 17.3274 11.625 17.3274H14.375C15.1234 17.3274 15.8056 17.6644 16.2829 18.2032C16.7559 18.737 17 19.432 17 20.1296V24.7859C17 24.9117 17.0456 25.0063 17.0884 25.0546C17.1082 25.0769 17.1233 25.0852 17.1283 25.0876C17.1287 25.0878 17.129 25.0879 17.1293 25.0881H22.6207C22.621 25.0879 22.6213 25.0878 22.6217 25.0876C22.6267 25.0852 22.6418 25.0769 22.6616 25.0546C22.7044 25.0063 22.75 24.9117 22.75 24.7859V11.5929C22.75 11.5223 22.7352 11.4575 22.7119 11.405C22.6888 11.3526 22.6613 11.3212 22.6423 11.3052L13.0173 3.15653C13.0099 3.15022 13.004 3.14643 13 3.14424Z" fill="white"/>
</g>
</g>
</svg>
